<svg width="343" height="34" viewBox="0 0 343 34" fill="none" xmlns="http://www.w3.org/2000/svg">
<rect x="0.5" y="0.5" width="342" height="33" stroke="#D2CFCF"/>
<path d="M1 5C1 2.79086 2.79086 1 5 1H115V33H5C2.79086 33 1 31.2091 1 29V5Z" fill="#FEFEFE"/>
<path d="M43.8116 22.014C43.8116 21.678 43.8583 21.3047 43.9516 20.894C44.0449 20.4833 44.1943 20.0307 44.3996 19.536L45.4076 19.928C45.2583 20.32 45.1463 20.6793 45.0716 21.006C44.9969 21.3327 44.9596 21.636 44.9596 21.916C44.9596 22.4293 45.0856 22.8447 45.3376 23.162C45.5989 23.4887 45.9443 23.7267 46.3736 23.876C46.8123 24.0253 47.2929 24.1 47.8156 24.1C48.4503 24.1 48.9823 24.03 49.4116 23.89C49.8409 23.7593 50.1816 23.5773 50.4336 23.344C50.6856 23.1107 50.8629 22.8447 50.9656 22.546C51.0776 22.2567 51.1336 21.9533 51.1336 21.636C51.1336 21.2253 51.1009 20.838 51.0356 20.474C50.9796 20.11 50.9003 19.7553 50.7976 19.41C50.7043 19.0553 50.6016 18.696 50.4896 18.332L51.6236 18.024C51.7263 18.3787 51.8056 18.668 51.8616 18.892C51.9176 19.1067 51.9596 19.2793 51.9876 19.41C52.0249 19.5407 52.0576 19.6573 52.0856 19.76C52.1883 20.1053 52.3236 20.362 52.4916 20.53C52.6596 20.6887 52.8509 20.796 53.0656 20.852C53.2896 20.8987 53.5183 20.922 53.7516 20.922C53.9476 20.922 54.0876 20.978 54.1716 21.09C54.2649 21.1927 54.3116 21.3187 54.3116 21.468C54.3116 21.6173 54.2463 21.7573 54.1156 21.888C53.9849 22.0093 53.8169 22.07 53.6116 22.07C53.2196 22.07 52.8929 22.0047 52.6316 21.874C52.3703 21.734 52.1649 21.5613 52.0156 21.356C51.8756 21.1507 51.7823 20.936 51.7356 20.712L52.3096 21.426C52.2816 21.902 52.1883 22.364 52.0296 22.812C51.8803 23.2693 51.6376 23.68 51.3016 24.044C50.9656 24.4173 50.5083 24.7113 49.9296 24.926C49.3603 25.1407 48.6416 25.248 47.7736 25.248C47.2416 25.248 46.7376 25.1827 46.2616 25.052C45.7856 24.9213 45.3609 24.7207 44.9876 24.45C44.6236 24.1887 44.3343 23.8527 44.1196 23.442C43.9143 23.0407 43.8116 22.5647 43.8116 22.014ZM48.0396 16.428C47.8436 16.428 47.6756 16.3627 47.5356 16.232C47.4049 16.092 47.3396 15.9287 47.3396 15.742C47.3396 15.5553 47.4049 15.392 47.5356 15.252C47.6756 15.112 47.8436 15.042 48.0396 15.042C48.2263 15.042 48.3849 15.112 48.5156 15.252C48.6556 15.392 48.7256 15.5553 48.7256 15.742C48.7256 15.9287 48.6556 16.092 48.5156 16.232C48.3849 16.3627 48.2263 16.428 48.0396 16.428ZM53.6182 22.07L53.7582 20.922C54.3088 20.922 54.7382 20.9033 55.0462 20.866C55.3542 20.8193 55.5735 20.712 55.7042 20.544C55.8348 20.3667 55.9002 20.0913 55.9002 19.718C55.9002 19.4847 55.8628 19.2093 55.7882 18.892C55.7135 18.5653 55.6155 18.22 55.4942 17.856C55.3728 17.492 55.2422 17.1327 55.1022 16.778L56.2362 16.358C56.3575 16.6567 56.4695 16.9973 56.5722 17.38C56.6842 17.7627 56.7775 18.1407 56.8522 18.514C56.9268 18.8873 56.9642 19.214 56.9642 19.494C56.9642 19.9607 56.8988 20.3573 56.7682 20.684C56.6468 21.0107 56.4508 21.2767 56.1802 21.482C55.9095 21.6873 55.5595 21.8367 55.1302 21.93C54.7102 22.0233 54.2062 22.07 53.6182 22.07ZM56.2082 24.716C56.0122 24.716 55.8442 24.646 55.7042 24.506C55.5735 24.3753 55.5082 24.2167 55.5082 24.03C55.5082 23.8433 55.5735 23.68 55.7042 23.54C55.8442 23.4 56.0122 23.33 56.2082 23.33C56.3948 23.33 56.5535 23.4 56.6842 23.54C56.8242 23.68 56.8942 23.8433 56.8942 24.03C56.8942 24.2167 56.8242 24.3753 56.6842 24.506C56.5535 24.646 56.3948 24.716 56.2082 24.716ZM54.2902 24.716C54.0942 24.716 53.9262 24.646 53.7862 24.506C53.6555 24.3753 53.5902 24.2167 53.5902 24.03C53.5902 23.8433 53.6555 23.68 53.7862 23.54C53.9262 23.4 54.0942 23.33 54.2902 23.33C54.4768 23.33 54.6355 23.4 54.7662 23.54C54.9062 23.68 54.9762 23.8433 54.9762 24.03C54.9762 24.2167 54.9062 24.3753 54.7662 24.506C54.6355 24.646 54.4768 24.716 54.2902 24.716ZM60.8118 20.922C61.2784 20.922 61.6471 20.8753 61.9178 20.782C62.1978 20.6887 62.3984 20.5533 62.5198 20.376C62.6504 20.1893 62.7158 19.9747 62.7158 19.732C62.7158 19.5453 62.6644 19.3213 62.5618 19.06C62.4684 18.7987 62.3378 18.5093 62.1698 18.192C62.0018 17.8653 61.8058 17.5247 61.5818 17.17C61.3671 16.806 61.1338 16.4373 60.8818 16.064L61.8478 15.434C62.2118 15.9847 62.5291 16.5073 62.7998 17.002C63.0704 17.4873 63.2991 17.9447 63.4858 18.374C63.6724 18.794 63.8218 19.1907 63.9338 19.564C64.0644 19.9747 64.2091 20.278 64.3678 20.474C64.5358 20.67 64.7084 20.796 64.8858 20.852C65.0631 20.8987 65.2264 20.922 65.3758 20.922C65.5718 20.922 65.7164 20.978 65.8098 21.09C65.9031 21.1927 65.9498 21.3187 65.9498 21.468C65.9498 21.6173 65.8844 21.7573 65.7538 21.888C65.6231 22.0093 65.4551 22.07 65.2498 22.07C64.9418 22.07 64.6384 22.014 64.3398 21.902C64.0504 21.7807 63.7984 21.5893 63.5838 21.328C63.3691 21.0573 63.2198 20.698 63.1358 20.25L63.6958 19.802C63.6958 20.1753 63.6164 20.5393 63.4578 20.894C63.2991 21.2393 63.0098 21.524 62.5898 21.748C62.1791 21.972 61.5864 22.084 60.8118 22.084C60.4758 22.084 60.1491 22.056 59.8318 22C59.5238 21.944 59.2391 21.8647 58.9778 21.762C58.7164 21.65 58.4878 21.5193 58.2918 21.37L58.8518 20.404C59.0384 20.5253 59.2998 20.642 59.6358 20.754C59.9718 20.866 60.3638 20.922 60.8118 20.922ZM65.2529 22.07L65.3929 20.922C65.6543 20.922 65.8736 20.866 66.0509 20.754C66.2283 20.642 66.4009 20.4553 66.5689 20.194C66.7369 19.9327 66.9189 19.5827 67.1149 19.144C67.3856 18.5467 67.6516 18.094 67.9129 17.786C68.1836 17.478 68.4496 17.268 68.7109 17.156C68.9816 17.044 69.2476 16.988 69.5089 16.988C69.8263 16.988 70.1203 17.072 70.3909 17.24C70.6616 17.3987 70.8996 17.6133 71.1049 17.884C71.3103 18.1547 71.4689 18.4533 71.5809 18.78C71.7023 19.0973 71.7629 19.4147 71.7629 19.732C71.7629 20.292 71.6649 20.74 71.4689 21.076C71.2729 21.4027 71.0209 21.6407 70.7129 21.79C70.4143 21.93 70.1016 22 69.7749 22C69.4856 22 69.1123 21.944 68.6549 21.832C68.2069 21.72 67.6376 21.4353 66.9469 20.978L67.4929 20.096C67.9503 20.3853 68.3609 20.586 68.7249 20.698C69.0983 20.8007 69.4063 20.852 69.6489 20.852C69.9196 20.852 70.1343 20.8147 70.2929 20.74C70.4516 20.656 70.5683 20.5393 70.6429 20.39C70.7176 20.2407 70.7549 20.0727 70.7549 19.886C70.7549 19.6153 70.6896 19.3447 70.5589 19.074C70.4283 18.8033 70.2603 18.5793 70.0549 18.402C69.8589 18.2247 69.6489 18.136 69.4249 18.136C69.2569 18.136 69.0936 18.1827 68.9349 18.276C68.7763 18.3693 68.6129 18.542 68.4449 18.794C68.2769 19.046 68.0856 19.41 67.8709 19.886C67.6469 20.39 67.4323 20.7913 67.2269 21.09C67.0309 21.3793 66.8303 21.594 66.6249 21.734C66.4196 21.874 66.2049 21.9627 65.9809 22C65.7663 22.0467 65.5236 22.07 65.2529 22.07Z" fill="#151010"/>
<mask id="path-4-inside-1_23_815" fill="white">
<path d="M115 1H229V33H115V1Z"/>
</mask>
<path d="M115 1H229V33H115V1Z" fill="#FEFEFE"/>
<path d="M116 33V1H114V33H116Z" fill="#D6D6D6" mask="url(#path-4-inside-1_23_815)"/>
<path d="M160.423 22.014C160.423 21.678 160.47 21.3047 160.563 20.894C160.656 20.4833 160.806 20.0307 161.011 19.536L162.019 19.928C161.87 20.32 161.758 20.6793 161.683 21.006C161.608 21.3327 161.571 21.636 161.571 21.916C161.571 22.4293 161.697 22.8447 161.949 23.162C162.21 23.4887 162.556 23.7267 162.985 23.876C163.424 24.0253 163.904 24.1 164.427 24.1C165.062 24.1 165.594 24.03 166.023 23.89C166.452 23.7593 166.793 23.5773 167.045 23.344C167.297 23.1107 167.474 22.8447 167.577 22.546C167.689 22.2567 167.745 21.9533 167.745 21.636C167.745 21.2253 167.712 20.838 167.647 20.474C167.591 20.11 167.512 19.7553 167.409 19.41C167.316 19.0553 167.213 18.696 167.101 18.332L168.235 18.024C168.338 18.3787 168.417 18.668 168.473 18.892C168.529 19.1067 168.571 19.2793 168.599 19.41C168.636 19.5407 168.669 19.6573 168.697 19.76C168.8 20.1053 168.935 20.362 169.103 20.53C169.271 20.6887 169.462 20.796 169.677 20.852C169.901 20.8987 170.13 20.922 170.363 20.922C170.559 20.922 170.699 20.978 170.783 21.09C170.876 21.1927 170.923 21.3187 170.923 21.468C170.923 21.6173 170.858 21.7573 170.727 21.888C170.596 22.0093 170.428 22.07 170.223 22.07C169.831 22.07 169.504 22.0047 169.243 21.874C168.982 21.734 168.776 21.5613 168.627 21.356C168.487 21.1507 168.394 20.936 168.347 20.712L168.921 21.426C168.893 21.902 168.8 22.364 168.641 22.812C168.492 23.2693 168.249 23.68 167.913 24.044C167.577 24.4173 167.12 24.7113 166.541 24.926C165.972 25.1407 165.253 25.248 164.385 25.248C163.853 25.248 163.349 25.1827 162.873 25.052C162.397 24.9213 161.972 24.7207 161.599 24.45C161.235 24.1887 160.946 23.8527 160.731 23.442C160.526 23.0407 160.423 22.5647 160.423 22.014ZM164.651 16.428C164.455 16.428 164.287 16.3627 164.147 16.232C164.016 16.092 163.951 15.9287 163.951 15.742C163.951 15.5553 164.016 15.392 164.147 15.252C164.287 15.112 164.455 15.042 164.651 15.042C164.838 15.042 164.996 15.112 165.127 15.252C165.267 15.392 165.337 15.5553 165.337 15.742C165.337 15.9287 165.267 16.092 165.127 16.232C164.996 16.3627 164.838 16.428 164.651 16.428ZM170.229 22.07L170.369 20.922C170.827 20.922 171.191 20.894 171.461 20.838C171.732 20.782 171.928 20.67 172.049 20.502C172.171 20.3247 172.231 20.0633 172.231 19.718C172.231 19.4847 172.194 19.2093 172.119 18.892C172.045 18.5653 171.947 18.22 171.825 17.856C171.704 17.492 171.573 17.1327 171.433 16.778L172.567 16.358C172.689 16.6567 172.801 16.9973 172.903 17.38C173.015 17.7627 173.109 18.1407 173.183 18.514C173.258 18.8873 173.295 19.214 173.295 19.494C173.295 19.8673 173.253 20.1987 173.169 20.488C173.095 20.768 172.978 21.0107 172.819 21.216C172.661 21.412 172.455 21.5753 172.203 21.706C171.961 21.8273 171.676 21.9207 171.349 21.986C171.023 22.042 170.649 22.07 170.229 22.07ZM170.747 14.804L170.579 14.048C170.822 13.992 171.018 13.9453 171.167 13.908C171.317 13.8707 171.485 13.8287 171.671 13.782L171.601 14.076C171.359 14.0013 171.125 13.8427 170.901 13.6C170.687 13.3573 170.579 13.082 170.579 12.774C170.579 12.494 170.645 12.2607 170.775 12.074C170.915 11.878 171.093 11.7333 171.307 11.64C171.531 11.5467 171.769 11.5 172.021 11.5C172.124 11.5 172.231 11.5093 172.343 11.528C172.465 11.5467 172.577 11.5747 172.679 11.612L172.567 12.312C172.474 12.2933 172.385 12.2747 172.301 12.256C172.217 12.2373 172.124 12.228 172.021 12.228C171.807 12.228 171.639 12.2747 171.517 12.368C171.396 12.452 171.335 12.5733 171.335 12.732C171.335 12.928 171.396 13.096 171.517 13.236C171.648 13.376 171.793 13.488 171.951 13.572C172.119 13.6467 172.255 13.684 172.357 13.684L171.783 13.74C172.035 13.6747 172.269 13.6093 172.483 13.544C172.707 13.4693 172.908 13.3993 173.085 13.334L173.309 14.048C173.085 14.132 172.819 14.2207 172.511 14.314C172.213 14.4073 171.909 14.496 171.601 14.58C171.293 14.664 171.009 14.7387 170.747 14.804ZM175.277 22L174.997 12.004H176.131L176.411 22H175.277ZM177.815 21.37L178.375 20.404C178.562 20.5253 178.823 20.642 179.159 20.754C179.495 20.866 179.887 20.922 180.335 20.922C180.802 20.922 181.171 20.8753 181.441 20.782C181.721 20.6887 181.922 20.5533 182.043 20.376C182.174 20.1893 182.239 19.9747 182.239 19.732C182.239 19.5453 182.197 19.3167 182.113 19.046C182.039 18.766 181.871 18.3927 181.609 17.926C181.348 17.45 180.947 16.8293 180.405 16.064L181.371 15.434C181.866 16.1153 182.258 16.7313 182.547 17.282C182.846 17.8327 183.056 18.318 183.177 18.738C183.308 19.1487 183.373 19.5033 183.373 19.802C183.373 20.1753 183.28 20.5393 183.093 20.894C182.907 21.2393 182.594 21.524 182.155 21.748C181.717 21.972 181.11 22.084 180.335 22.084C179.999 22.084 179.673 22.056 179.355 22C179.047 21.944 178.763 21.8647 178.501 21.762C178.24 21.65 178.011 21.5193 177.815 21.37Z" fill="#151010"/>
<path d="M229 1H338C340.209 1 342 2.79086 342 5V29C342 31.2091 340.209 33 338 33H229V1Z" fill="#006A53"/>
<path d="M273.766 22.014C273.766 21.79 273.784 21.552 273.822 21.3C273.868 21.0387 273.934 20.7633 274.018 20.474C274.111 20.1753 274.223 19.8627 274.354 19.536L275.362 19.928C275.268 20.1893 275.184 20.4367 275.11 20.67C275.044 20.9033 274.993 21.1227 274.956 21.328C274.928 21.5333 274.914 21.7293 274.914 21.916C274.914 22.392 275.04 22.7933 275.292 23.12C275.544 23.4467 275.87 23.6893 276.272 23.848C276.682 24.016 277.121 24.1 277.588 24.1C278.502 24.1 279.216 23.9367 279.73 23.61C280.243 23.2927 280.602 22.868 280.808 22.336C281.013 21.8133 281.102 21.2393 281.074 20.614L280.766 12.004H281.928L282.152 19.102C282.17 19.578 282.245 19.9513 282.376 20.222C282.516 20.4833 282.702 20.6653 282.936 20.768C283.169 20.8707 283.426 20.922 283.706 20.922C283.902 20.922 284.042 20.978 284.126 21.09C284.219 21.1927 284.266 21.3187 284.266 21.468C284.266 21.6173 284.2 21.7573 284.07 21.888C283.939 22.0093 283.771 22.07 283.566 22.07C283.276 22.07 283.029 22.0327 282.824 21.958C282.618 21.874 282.45 21.7713 282.32 21.65C282.189 21.5193 282.086 21.3747 282.012 21.216C281.937 21.048 281.881 20.88 281.844 20.712L282.236 21.104C282.198 21.5987 282.091 22.0887 281.914 22.574C281.746 23.0687 281.484 23.5167 281.13 23.918C280.775 24.3193 280.299 24.6413 279.702 24.884C279.114 25.1267 278.386 25.248 277.518 25.248C277.032 25.248 276.561 25.1733 276.104 25.024C275.656 24.884 275.254 24.674 274.9 24.394C274.554 24.114 274.279 23.7733 274.074 23.372C273.868 22.98 273.766 22.5273 273.766 22.014ZM283.572 22.07L283.712 20.922H284.79C285.565 20.922 286.139 20.88 286.512 20.796C286.886 20.712 287.128 20.6 287.24 20.46C287.362 20.32 287.422 20.1753 287.422 20.026C287.422 19.802 287.338 19.5547 287.17 19.284C287.002 19.0133 286.788 18.738 286.526 18.458C286.265 18.1687 285.985 17.884 285.686 17.604C285.397 17.324 285.122 17.0673 284.86 16.834C284.599 16.6007 284.384 16.4 284.216 16.232C284.048 16.0547 283.964 15.9287 283.964 15.854C283.964 15.714 283.974 15.5787 283.992 15.448C284.02 15.3173 284.053 15.196 284.09 15.084C284.137 14.972 284.193 14.8833 284.258 14.818C284.445 14.622 284.702 14.4167 285.028 14.202C285.355 13.978 285.733 13.754 286.162 13.53C286.592 13.2967 287.049 13.0633 287.534 12.83C288.02 12.5873 288.51 12.3447 289.004 12.102L289.48 13.138C289.032 13.362 288.584 13.586 288.136 13.81C287.688 14.0247 287.254 14.2393 286.834 14.454C286.414 14.6687 286.018 14.888 285.644 15.112C285.28 15.3267 284.949 15.546 284.65 15.77L284.734 15.294C285.154 15.6487 285.551 15.9893 285.924 16.316C286.298 16.6427 286.652 16.9787 286.988 17.324C287.324 17.66 287.637 18.024 287.926 18.416C288.216 18.808 288.486 19.242 288.738 19.718C288.934 20.082 289.163 20.348 289.424 20.516C289.686 20.684 289.942 20.796 290.194 20.852C290.456 20.8987 290.666 20.922 290.824 20.922C291.02 20.922 291.16 20.978 291.244 21.09C291.338 21.1927 291.384 21.3187 291.384 21.468C291.384 21.6173 291.319 21.7573 291.188 21.888C291.058 22.0093 290.89 22.07 290.684 22.07C290.432 22.07 290.134 22.0327 289.788 21.958C289.452 21.874 289.121 21.7153 288.794 21.482C288.468 21.2487 288.197 20.894 287.982 20.418L288.402 20.586C288.262 20.838 288.099 21.0573 287.912 21.244C287.735 21.4213 287.506 21.5753 287.226 21.706C286.946 21.8273 286.606 21.9207 286.204 21.986C285.803 22.042 285.313 22.07 284.734 22.07H283.572ZM290.682 22.07L290.808 20.922C291.34 20.922 291.713 20.8707 291.928 20.768C292.142 20.6653 292.264 20.4833 292.292 20.222C292.329 19.9607 292.338 19.5967 292.32 19.13L292.054 12.004H293.188L293.468 19.004C293.486 19.4987 293.468 19.9373 293.412 20.32C293.365 20.7027 293.244 21.0247 293.048 21.286C292.861 21.5473 292.576 21.7433 292.194 21.874C291.82 22.0047 291.316 22.07 290.682 22.07ZM295.606 22L295.326 12.004H296.46L296.74 22H295.606Z" fill="#FEFEFE"/>
</svg>
